<svg width="561" height="470" viewBox="0 0 561 470" fill="none" xmlns="http://www.w3.org/2000/svg">
<path d="M116.014 54.8494C116.691 51.2581 117.056 60.7965 116.841 62.1573C115.143 72.9267 113.995 83.7944 113.644 94.6944C112.741 122.715 117.158 152.258 133.566 175.688C162.489 216.988 217.677 223.606 263.734 215.035C266.212 214.574 267.357 218.152 264.995 219.128C254.084 223.636 237.764 222.708 226.208 222.389C198.113 221.613 168.998 213.866 147.378 195.17C107.637 160.805 107.012 102.568 116.014 54.8494ZM264.934 219.152C257.127 221.685 291.234 204.352 314.397 201.814C351.069 197.797 388.707 207.734 410.102 239.877C451.729 302.414 432.27 386.196 416.521 455.293C416.374 455.938 417.09 441.196 418.462 434.305C421.357 419.772 423.203 405.051 424.821 390.326C429.894 344.166 432.929 289.042 408.248 247.363C376.779 194.222 314.677 203.011 264.934 219.152Z" fill="white" fill-opacity="0.31"/>
<path d="M223.168 222.372C206.119 222.256 150.304 229.542 163.81 262.131C167.584 271.238 170.673 274.757 175.25 280.452C182.039 288.898 163.926 269.985 160.944 258.564C151.084 220.81 252.716 222.573 223.168 222.372Z" fill="white" fill-opacity="0.31"/>
<path d="M372.854 214.664C355.806 214.548 299.99 221.834 313.497 254.423C317.271 263.53 320.36 267.049 324.937 272.744C331.725 281.19 313.613 262.277 310.63 250.856C300.77 213.102 402.403 214.865 372.854 214.664Z" fill="white" fill-opacity="0.31"/>
<path d="M369.655 209.142C353.958 202.486 305.61 173.662 330.932 149.103C338.009 142.239 342.24 140.234 348.7 136.821C358.282 131.76 334.154 141.938 326.887 151.24C302.862 181.988 396.86 220.676 369.655 209.142Z" fill="white" fill-opacity="0.31"/>
<path d="M429.959 373.048C424.473 356.906 399.269 306.575 372.92 330.03C365.556 336.585 363.246 340.657 359.369 346.85C353.619 356.035 365.539 332.718 375.348 326.152C407.773 304.445 439.469 401.025 429.959 373.048Z" fill="white" fill-opacity="0.31"/>
<path d="M210.584 220.368C194.551 214.57 139.503 202.816 141.362 238.043C141.882 247.887 143.619 252.235 146.034 259.131C149.615 269.359 138.851 245.486 139.85 233.725C143.152 194.844 238.372 230.415 210.584 220.368Z" fill="white" fill-opacity="0.31"/>
<path d="M360.773 211.014C343.942 208.296 287.669 206.971 296.039 241.24C298.378 250.817 300.893 254.766 304.547 261.093C309.966 270.478 294.954 249.02 293.751 237.278C289.773 198.461 389.944 215.725 360.773 211.014Z" fill="white" fill-opacity="0.31"/>
<path d="M357.117 207.701C340.588 203.522 288.404 182.421 309.679 154.281C315.624 146.418 319.499 143.79 325.362 139.43C334.058 132.964 311.768 146.709 306.007 157.012C286.961 191.068 385.764 214.945 357.117 207.701Z" fill="white" fill-opacity="0.31"/>
<path d="M429.137 362.034C429.258 344.985 421.99 289.167 389.398 302.663C380.289 306.434 376.77 309.522 371.073 314.097C362.624 320.883 381.543 302.777 392.965 299.798C430.722 289.95 428.927 391.582 429.137 362.034Z" fill="white" fill-opacity="0.31"/>
<path d="M223.882 218.922C208.185 212.267 159.836 183.443 185.159 158.883C192.235 152.02 196.467 150.015 202.927 146.602C212.509 141.54 188.381 151.719 181.113 161.021C157.089 191.768 251.086 230.457 223.882 218.922Z" fill="white" fill-opacity="0.31"/>
<path d="M211.84 155.185C207.402 151.813 198.592 142.788 210.783 145.859C220.069 148.198 222.445 139.368 217.279 139.373C212.492 139.377 206.422 140.187 204.356 146.192C197.261 166.816 214.291 157.048 211.84 155.185Z" fill="white" fill-opacity="0.31"/>
<path d="M199.807 133.255C203.531 138.426 210.483 151.193 199.088 143.633C190.409 137.875 186.411 146.519 191.485 148.321C196.187 149.991 202.302 151.245 205.463 145.524C216.318 125.872 197.751 130.398 199.807 133.255Z" fill="white" fill-opacity="0.31"/>
<path d="M135.243 82.0068C123.17 72.8328 99.2039 48.2817 132.368 56.6357C157.629 62.9986 164.093 38.9788 150.041 38.9916C137.018 39.0035 120.503 41.2072 114.885 57.5408C95.5834 113.647 141.912 87.0739 135.243 82.0068Z" fill="white" fill-opacity="0.31"/>
<path d="M102.511 22.3485C112.639 36.417 131.551 71.1478 100.553 50.5818C76.9424 34.9172 66.066 58.4332 79.87 63.335C92.6626 67.8776 109.298 71.2894 117.895 55.7262C147.426 2.26576 96.9162 14.578 102.511 22.3485Z" fill="white" fill-opacity="0.31"/>
<path d="M115.214 69.3517C115.413 68.2759 114.368 75.048 114.031 77.9073C113.335 83.8284 113.025 89.8897 113.893 95.8108C116.088 110.783 130.614 124.207 146.139 123.696C181.945 122.517 178.554 75.9779 148.143 78.7239C125.12 80.8027 132.522 118.34 154.757 108.389C154.979 108.29 143.412 112.128 139.192 109.101C132.648 104.407 131.051 93.3318 134.502 86.445C145.9 63.6952 181.914 88.412 171.467 109.841C161.228 130.845 131.329 126.123 119.24 110.034C110.655 98.6092 112.799 82.4413 115.214 69.3517Z" fill="white" fill-opacity="0.31"/>
<path d="M226.131 220.135C225.047 219.985 231.859 220.725 234.731 220.932C240.677 221.363 246.746 221.4 252.622 220.267C267.481 217.403 280.239 202.289 279.032 186.802C276.248 151.085 229.907 156.561 234.016 186.819C237.126 209.725 274.293 200.645 263.354 178.88C263.245 178.662 267.598 190.045 264.764 194.397C260.368 201.145 249.376 203.238 242.341 200.1C219.103 189.733 242.178 152.647 264.055 162.121C285.496 171.407 282.121 201.489 266.592 214.287C255.563 223.376 239.316 221.96 226.131 220.135Z" fill="white" fill-opacity="0.31"/>
<path d="M430.365 355.768C430.399 354.675 429.983 361.514 429.705 364.38C429.13 370.314 428.146 376.303 426.041 381.905C420.719 396.07 403.675 406.106 388.612 402.312C353.872 393.562 367.061 348.802 396.197 357.939C418.254 364.856 403.055 399.968 383.439 385.525C383.242 385.381 393.731 391.586 398.498 389.524C405.889 386.325 409.8 375.841 407.889 368.379C401.578 343.728 361.139 360.24 366.801 383.398C372.349 406.096 402.57 407.826 417.798 394.67C428.611 385.327 429.947 369.072 430.365 355.768Z" fill="white" fill-opacity="0.31"/>
<path d="M111.613 78.8484C111.558 78.1562 111.777 82.5006 111.803 84.328C111.857 88.1124 111.658 91.9601 110.725 95.6425C108.364 104.954 98.3165 112.485 88.5459 111.151C66.0128 108.075 71.1845 78.908 90.2094 82.6224C104.612 85.4343 97.4935 108.656 84.1011 100.924C83.967 100.847 91.0213 104.024 93.8833 102.387C98.3212 99.8495 100.051 92.9598 98.3206 88.3863C92.604 73.2783 68.253 86.541 73.4543 100.753C78.5523 114.683 97.7404 113.648 106.422 104.276C112.587 97.6205 112.286 87.2714 111.613 78.8484Z" fill="white" fill-opacity="0.31"/>
<path d="M229.672 220.994C228.98 220.944 233.307 221.387 235.117 221.638C238.866 222.159 242.639 222.939 246.137 224.421C254.983 228.168 260.901 239.241 258.1 248.696C251.641 270.502 223.596 260.964 230.154 242.723C235.119 228.914 256.992 239.474 247.318 251.538C247.221 251.659 251.432 245.168 250.248 242.091C248.413 237.319 241.866 234.564 237.083 235.58C221.282 238.938 230.696 265.02 245.533 262.035C260.075 259.11 261.964 239.987 254.018 229.984C248.375 222.88 238.1 221.608 229.672 220.994Z" fill="white" fill-opacity="0.31"/>
<path d="M430.617 359.404C430.684 358.713 430.393 363.053 430.336 364.88C430.219 368.663 430.354 372.513 431.227 376.211C433.433 385.56 443.353 393.257 453.145 392.085C475.726 389.384 471.039 360.135 451.955 363.533C437.508 366.105 444.24 389.442 457.759 381.934C457.894 381.859 450.788 384.918 447.954 383.234C443.558 380.623 441.943 373.706 443.749 369.162C449.716 354.15 473.843 367.816 468.407 381.939C463.078 395.783 443.91 394.429 435.386 384.915C429.332 378.158 429.805 367.815 430.617 359.404Z" fill="white" fill-opacity="0.31"/>
<path d="M157.851 260.834C152.321 261.534 139.712 261.261 150.565 254.916C158.832 250.083 154.345 242.116 150.661 245.737C147.246 249.092 143.48 253.922 146.21 259.654C155.588 279.346 160.905 260.447 157.851 260.834Z" fill="white" fill-opacity="0.31"/>
<path d="M133.904 253.605C140.183 254.69 154.086 258.936 140.658 261.518C130.429 263.485 133.629 272.456 138.513 270.189C143.039 268.088 148.283 264.701 146.533 258.404C140.52 236.773 130.435 253.006 133.904 253.605Z" fill="white" fill-opacity="0.31"/>
<path d="M380.56 316.841C375.03 317.542 362.421 317.269 373.274 310.924C381.541 306.091 377.054 298.123 373.37 301.744C369.955 305.1 366.189 309.929 368.919 315.662C378.297 335.353 383.614 316.454 380.56 316.841Z" fill="white" fill-opacity="0.31"/>
<path d="M356.612 309.613C362.892 310.697 376.795 314.943 363.367 317.526C353.138 319.493 356.338 328.463 361.222 326.196C365.748 324.095 370.992 320.708 369.242 314.411C363.229 292.781 353.144 309.014 356.612 309.613Z" fill="white" fill-opacity="0.31"/>
<path d="M503.891 313.383C498.361 314.084 485.752 313.811 496.605 307.466C504.872 302.633 500.385 294.665 496.701 298.286C493.286 301.642 489.52 306.471 492.25 312.204C501.628 331.895 506.945 312.996 503.891 313.383Z" fill="white" fill-opacity="0.31"/>
<path d="M479.944 306.155C486.223 307.239 500.126 311.485 486.698 314.068C476.47 316.035 479.669 325.005 484.553 322.738C489.079 320.637 494.323 317.25 492.573 310.953C486.56 289.323 476.475 305.556 479.944 306.155Z" fill="white" fill-opacity="0.31"/>
<path d="M178.553 162.429C175.888 159.805 170.798 153.047 178.647 156.133C184.626 158.483 186.962 152.811 183.524 152.373C180.339 151.966 176.23 151.986 174.342 155.805C167.858 168.921 180.025 163.878 178.553 162.429Z" fill="white" fill-opacity="0.31"/>
<path d="M172.422 146.808C174.457 150.568 177.991 159.657 171.056 153.652C165.773 149.079 162.374 154.489 165.596 156.122C168.582 157.635 172.544 158.992 175.136 155.456C184.039 143.308 171.298 144.732 172.422 146.808Z" fill="white" fill-opacity="0.31"/>
<path d="M186.168 299.124C178.451 294.13 162.985 280.959 183.79 286.023C199.638 289.88 203.097 277.69 194.363 277.37C186.27 277.073 176.057 277.82 172.946 286.081C162.256 314.456 190.43 301.882 186.168 299.124Z" fill="white" fill-opacity="0.31"/>
<path d="M164.437 267.713C171.059 275.176 183.621 293.459 163.877 282.172C148.839 273.575 142.626 285.403 151.32 288.243C159.376 290.874 169.794 293.014 174.775 285.219C191.884 258.441 160.779 263.591 164.437 267.713Z" fill="white" fill-opacity="0.31"/>
<path d="M369.015 363.719C361.298 358.725 345.831 345.554 366.637 350.618C382.484 354.474 385.943 342.285 377.21 341.964C369.117 341.667 358.904 342.415 355.792 350.676C345.102 379.051 373.277 366.477 369.015 363.719Z" fill="white" fill-opacity="0.31"/>
<path d="M347.283 332.308C353.906 339.771 366.468 358.054 346.724 346.767C331.685 338.17 325.473 349.998 334.166 352.837C342.223 355.469 352.641 357.609 357.622 349.813C374.731 323.036 343.626 328.185 347.283 332.308Z" fill="white" fill-opacity="0.31"/>
<path d="M500.877 273.212C493.16 268.218 477.694 255.048 498.499 260.111C514.347 263.968 517.806 251.779 509.072 251.458C500.979 251.161 490.766 251.909 487.655 260.169C476.965 288.544 505.139 275.971 500.877 273.212Z" fill="white" fill-opacity="0.31"/>
<path d="M479.146 241.801C485.768 249.265 498.33 267.548 478.586 256.26C463.548 247.663 457.335 259.491 466.029 262.331C474.085 264.962 484.503 267.102 489.484 259.307C506.593 232.529 475.488 237.679 479.146 241.801Z" fill="white" fill-opacity="0.31"/>
<path d="M319.188 251.848C314.155 258.768 301.287 272.462 307.465 253.342C312.171 238.779 301.733 234.881 300.728 243.006C299.796 250.536 299.608 260.1 306.618 263.457C330.696 274.99 321.968 248.026 319.188 251.848Z" fill="white" fill-opacity="0.31"/>
<path d="M289.753 270.377C296.867 264.614 313.992 253.91 302.427 271.696C293.618 285.244 303.509 291.689 306.728 283.74C309.71 276.373 312.456 266.777 306.01 261.703C283.869 244.273 285.823 273.56 289.753 270.377Z" fill="white" fill-opacity="0.31"/>
<path d="M335.135 153.725C333.259 145.376 326.877 127.702 324.965 147.704C323.51 162.94 312.383 162.378 314.682 154.521C316.813 147.239 320.433 138.385 328.199 138.083C354.876 137.045 336.171 158.336 335.135 153.725Z" fill="white" fill-opacity="0.31"/>
<path d="M315.462 125.042C319.707 133.154 331.183 149.771 327.62 128.857C324.906 112.927 336.542 110.933 336.344 119.506C336.16 127.452 334.875 137.349 326.946 139.451C299.708 146.671 313.117 120.561 315.462 125.042Z" fill="white" fill-opacity="0.31"/>
<path d="M331.099 284.858C327.286 280.606 320.147 270.293 331.762 276.998C340.609 282.105 344.612 275.838 339.45 274.046C334.666 272.385 328.45 270.926 325.279 275.031C314.386 289.134 333.204 287.206 331.099 284.858Z" fill="white" fill-opacity="0.31"/>
<path d="M323.12 263.056C325.887 268.505 330.479 281.179 320.487 271.144C312.876 263.501 307.287 269.056 312.025 272.267C316.416 275.243 322.295 278.377 326.508 274.879C340.979 262.865 321.592 260.047 323.12 263.056Z" fill="white" fill-opacity="0.31"/>
<path d="M359.161 128.144C353.974 130.535 343.331 137.171 356.653 135.622C366.8 134.443 367.989 141.784 362.539 141.381C357.489 141.008 351.204 139.883 349.921 134.857C345.515 117.591 362.025 126.823 359.161 128.144Z" fill="white" fill-opacity="0.31"/>
<path d="M343.19 144.993C347.891 141.088 357.132 131.275 343.98 136.525C333.963 140.523 331.035 133.207 336.658 132.138C341.869 131.147 348.509 130.602 350.989 135.484C359.509 152.251 340.594 147.15 343.19 144.993Z" fill="white" fill-opacity="0.31"/>
<path d="M431.928 309.946C430.467 292.959 433.323 236.743 466.876 247.634C476.252 250.677 480.004 253.479 486.043 257.592C494.999 263.692 474.715 247.13 463.094 245.058C424.679 238.21 434.461 339.386 431.928 309.946Z" fill="white" fill-opacity="0.31"/>
<path d="M204.68 216.778C191.85 211.186 150.448 187.019 163.177 166.608C166.734 160.904 169.334 159.244 173.226 156.415C178.997 152.221 163.884 160.643 160.74 168.379C150.346 193.953 226.918 226.47 204.68 216.778Z" fill="white" fill-opacity="0.31"/>
<path d="M431.264 355.911C432.398 338.9 443.754 283.768 475.265 299.626C484.071 304.058 487.354 307.396 492.699 312.378C500.625 319.768 483.09 300.318 471.918 296.506C434.988 283.906 429.298 385.395 431.264 355.911Z" fill="white" fill-opacity="0.31"/>
</svg>
