<svg width="144" height="121" viewBox="0 0 144 121" fill="none" xmlns="http://www.w3.org/2000/svg">
<path d="M84.5249 79.1462C104.994 68.44 87.9915 59.7689 93.9351 44.9124C88.0141 58.8795 103.963 68.3941 84.5249 79.1462Z" fill="#C9C9C9"/>
<path d="M81.7804 78.5618C71.2041 58.0248 90.0991 60.721 93.7901 45.1512C90.5925 59.9806 72.0743 58.5812 81.7804 78.5618Z" fill="#C9C9C9"/>
<path d="M88.1275 62.7646C88.1788 62.7272 87.0777 63.6487 86.5954 64.1356C84.9305 65.816 83.7556 67.9029 83.2788 70.2256C81.4114 79.3217 89.5143 89.0871 80.6298 96.2908C91.1087 87.1799 75.6552 71.8702 88.1275 62.7646Z" fill="#C9C9C9"/>
<path d="M72.3245 101.633C49.3239 94.8371 64.6269 83.4559 55.4052 70.0947C64.4115 82.5977 50.3566 94.612 72.3245 101.633Z" fill="#C9C9C9"/>
<path d="M74.9698 100.586C81.2104 78.8267 62.7022 84.7471 55.6021 70.3002C62.0433 84.1158 80.4515 79.5183 74.9698 100.586Z" fill="#C9C9C9"/>
<path d="M65.1363 86.3836C65.0763 86.3563 66.3884 87.0569 66.9811 87.4444C69.0271 88.7821 70.666 90.5994 71.6506 92.7675C75.5066 101.258 69.4334 112.142 79.97 117.571C67.4095 110.573 79.7097 93.0275 65.1363 86.3836Z" fill="#C9C9C9"/>
<path d="M95.2312 86.3787C135.008 78.2783 113.092 66.9242 132.082 52.4776C113.691 66.0117 133.374 78.0837 95.2312 86.3787Z" fill="#C9C9C9"/>
<path d="M91.1791 85.385C87.1373 62.7321 115.888 68.2049 131.699 52.7024C117.152 67.5132 88.1877 63.4291 91.1791 85.385Z" fill="#C9C9C9"/>
<path d="M111.416 70.0282C111.522 69.997 109.164 70.7885 108.078 71.2209C104.33 72.7134 101.114 74.6941 98.8746 77.0173C90.1035 86.1154 96.9802 97.3256 78.0963 103.474C100.758 95.5897 85.544 77.6223 111.416 70.0282Z" fill="#C9C9C9"/>
<path d="M55.66 100.584C15.7747 108.953 29.4641 79.4245 4.87962 66.7541C28.4486 78.3056 17.1371 107.778 55.66 100.584Z" fill="#C9C9C9"/>
<path d="M58.7703 96.8658C50.5237 59.0335 27.6296 82.9273 5.34068 66.9048C26.1342 82.5091 49.9477 60.6895 58.7703 96.8658Z" fill="#C9C9C9"/>
<path d="M32.5918 83.4233C32.4801 83.4306 35.0082 83.4247 36.2077 83.529C40.3479 83.8892 44.2669 85.3014 47.4909 87.7713C60.1166 97.4444 59.828 118.757 79.9698 118.411C55.5333 118.029 59.7524 81.6432 32.5918 83.4233Z" fill="#C9C9C9"/>
<path d="M77.487 52.126C68.9486 74.6653 82.3597 95.1133 79.6498 118.019C79.6117 118.341 79.7886 114.46 79.8154 112.68C79.8697 109.078 79.6452 105.474 79.1207 101.909C76.38 83.2815 69.6527 70.7718 77.487 52.126Z" fill="#C9C9C9"/>
<path d="M90.4352 34.0932C90.4352 34.0919 90.6195 35.8754 90.6043 36.4186C90.5143 39.6399 89.8472 42.9714 88.3095 45.7491C85.2773 51.2261 78.9879 53.6423 74.1641 51.026C65.9074 46.5479 69.5331 32.864 71.2766 24.6949C71.4833 23.7267 71.8118 16.3413 72.5135 15.887C72.6767 15.7813 74.189 21.7301 74.1922 21.7415C75.5608 26.7645 77.1765 31.6573 78.5962 36.6524C78.8509 37.5484 77.7579 35.8559 77.5959 35.3279C76.4098 31.463 72.5194 15.9959 72.5372 15.9672C73.1473 14.9846 72.289 18.3506 72.1511 19.5411C71.8747 21.9282 71.454 24.2941 70.8842 26.6243C69.1799 33.5931 67.3396 43.4899 72.201 48.9275C80.6685 58.3987 90.4574 44.4508 90.4352 34.0932ZM78.5016 37.0307C77.8868 37.5938 79.3205 35.4715 79.7977 35.0318C83.4115 31.7014 91.8488 22.1276 91.8488 22.1276C91.8488 22.1276 91.0977 24.0159 91.086 24.0683C90.3518 27.3416 90.4876 30.8775 90.5658 34.2108C90.5659 34.2157 90.4123 32.2281 90.4316 31.6571C90.5334 28.638 91.0638 25.7454 91.7456 22.8161C91.7897 22.6266 91.6975 22.1508 91.8375 22.2386C91.9776 22.3263 89.5899 24.9447 88.4686 26.3008C85.2723 30.1665 82.0944 33.7398 78.5016 37.0307Z" fill="#C9C9C9"/>
<path d="M82.6541 32.8457C82.7277 33.0848 81.9211 21.6569 79.4061 22.1004C77.5792 22.4226 76.7425 30.8119 76.6847 32.5578C76.6767 32.7996 77.0161 22.9203 79.3931 22.3954C81.0686 22.0255 82.1787 31.3028 82.6541 32.8457Z" fill="#C9C9C9"/>
<path d="M57.9902 36.2049C69.3355 49.2252 58.891 65.2325 64.5719 79.6477C64.6517 79.8501 63.966 77.3522 63.7046 76.1954C63.1756 73.8545 62.9197 71.4574 62.963 69.0263C63.1895 56.3232 68.1313 46.8232 57.9902 36.2049Z" fill="#C9C9C9"/>
<path d="M45.0804 18.3911C45.0804 18.3898 44.8961 20.1732 44.9113 20.7165C45.0014 23.9378 45.6684 27.2693 47.2061 30.047C50.2383 35.524 56.5277 37.9402 61.3515 35.3239C69.6082 30.8457 65.9825 17.1619 64.239 8.99275C64.0324 8.02454 63.7039 0.639186 63.0021 0.184809C62.839 0.0791676 61.3266 6.02791 61.3235 6.03938C59.9548 11.0624 58.3391 15.9551 56.9194 20.9502C56.6647 21.8462 57.7577 20.1537 57.9198 19.6258C59.1058 15.7609 62.9963 0.293768 62.9784 0.265012C62.3683 -0.717505 63.2266 2.64849 63.3645 3.83892C63.6409 6.22604 64.0616 8.59197 64.6315 10.9222C66.3357 17.8909 68.176 27.7877 63.3146 33.2253C54.8471 42.6965 45.0582 28.7486 45.0804 18.3911ZM57.0141 21.3286C57.6288 21.8917 56.1951 19.7693 55.718 19.3296C52.1041 15.9992 43.6668 6.42546 43.6668 6.42546C43.6668 6.42546 44.4179 8.31374 44.4297 8.36618C45.1638 11.6395 45.0281 15.1754 44.9499 18.5086C44.9498 18.5135 45.1033 16.526 45.084 15.9549C44.9823 12.9359 44.4518 10.0433 43.77 7.114C43.7259 6.92442 43.8182 6.44861 43.6781 6.5364C43.538 6.62419 45.9257 9.24257 47.047 10.5987C50.2434 14.4643 53.4212 18.0376 57.0141 21.3286Z" fill="#C9C9C9"/>
<path d="M52.8616 17.1435C52.7879 17.3827 53.5945 5.95472 56.1096 6.39826C57.9364 6.72045 58.7732 15.1098 58.8309 16.8557C58.8389 17.0975 58.4996 7.21819 56.1225 6.6933C54.447 6.32331 53.3369 15.6007 52.8616 17.1435Z" fill="#C9C9C9"/>
<path d="M49.7564 62.0072C59.177 74.4053 54.6167 89.5308 60.4938 103.224C60.5763 103.416 59.7556 101.045 59.4127 99.947C58.7187 97.7253 58.1973 95.4515 57.8688 93.1469C56.1525 81.1051 58.0272 72.1223 49.7564 62.0072Z" fill="#C9C9C9"/>
<path d="M38.4307 53.2088C38.4304 53.208 38.6431 54.3467 38.7521 54.6804C39.3983 56.6595 40.4222 58.6011 41.8839 60.04C44.7662 62.8772 49.1053 63.2213 51.6141 60.7164C55.9083 56.4288 51.1541 48.6163 48.5768 43.8751C48.2713 43.3132 46.7141 38.7982 46.1961 38.6453C46.0757 38.6098 46.2291 42.5722 46.2293 42.5799C46.3021 45.9424 46.1979 49.2696 46.2339 52.6243C46.2404 53.226 46.6073 51.9772 46.6109 51.6205C46.6373 49.0088 46.2125 38.7139 46.1961 38.6994C45.6381 38.2025 46.7868 40.1304 47.0904 40.8426C47.6991 42.2708 48.3934 43.6593 49.1735 44.9985C51.5066 49.0032 54.4606 54.7969 52.4456 59.0565C48.936 66.4759 40.3153 59.6294 38.4307 53.2088ZM46.3619 52.8413C46.846 53.0775 45.5688 52.0255 45.1926 51.8406C42.3434 50.4398 35.3618 46.0553 35.3618 46.0553C35.3618 46.0553 36.1732 47.0874 36.1901 47.1177C37.2448 49.011 37.8089 51.2263 38.3714 53.3056C38.3722 53.3087 38.103 52.0492 37.9864 51.699C37.37 49.8474 36.5112 48.1526 35.5519 46.4629C35.4899 46.3536 35.4598 46.0419 35.3891 46.122C35.3184 46.202 37.2775 47.3865 38.2207 48.021C40.9094 49.8299 43.533 51.4611 46.3619 52.8413Z" fill="#C9C9C9"/>
<path d="M43.0218 51.0101C43.02 51.1718 41.4251 43.9443 43.0644 43.7582C44.2552 43.6229 46.3112 48.6667 46.667 49.7377C46.7163 49.886 44.6953 43.828 43.1265 43.9385C42.0207 44.0164 43.0334 49.9672 43.0218 51.0101Z" fill="#C9C9C9"/>
</svg>
